# Blender 4.4.3
# www.blender.org
mtllib idk.mtl
o Plane.006
v -5.000000 0.000000 5.000000
v 5.000000 0.000000 5.000000
v -5.000000 0.000000 -5.000000
v 5.000000 0.000000 -5.000000
v -5.000000 10.000000 5.000000
v 5.000000 10.000000 5.000000
v -5.000000 10.000000 -5.000000
v 5.000000 10.000000 -5.000000
vn -0.0000 1.0000 -0.0000
vn -1.0000 -0.0000 -0.0000
vn 1.0000 -0.0000 -0.0000
vn -0.0000 -0.0000 1.0000
vn -0.0000 -0.0000 -1.0000
vn -0.0000 -1.0000 -0.0000
vt 0.000000 0.000000
vt 1.000000 0.000000
vt 1.000000 1.000000
vt 0.000000 1.000000
s 0
f 1/1/1 2/2/1 4/3/1 3/4/1
f 4/3/2 2/2/2 6/2/2 8/3/2
f 1/1/3 3/4/3 7/4/3 5/1/3
f 3/4/4 4/3/4 8/3/4 7/4/4
f 2/2/5 1/1/5 5/1/5 6/2/5
f 7/4/6 8/3/6 6/2/6 5/1/6
